<?xml version="1.0" standalone="no"?>
<!DOCTYPE svg PUBLIC "-//W3C//DTD SVG 20010904//EN"
 "http://www.w3.org/TR/2001/REC-SVG-20010904/DTD/svg10.dtd">
<svg version="1.0" xmlns="http://www.w3.org/2000/svg"
 width="260.000000pt" height="260.000000pt" viewBox="0 0 260.000000 260.000000"
 preserveAspectRatio="xMidYMid meet">
<metadata>
Created by potrace 1.14, written by Peter Selinger 2001-2017
</metadata>
<g transform="translate(0.000000,260.000000) scale(0.100000,-0.100000)"
fill="#000000" stroke="none">
<path d="M330 1300 l0 -730 115 0 115 0 0 730 0 730 -115 0 -115 0 0 -730z"/>
<path d="M670 1921 l0 -111 71 0 c38 0 90 -5 115 -11 128 -33 167 -234 61
-313 -24 -18 -46 -22 -138 -24 l-109 -4 0 -114 0 -114 120 0 c233 0 321 42
387 185 24 53 28 74 31 187 4 108 1 137 -17 196 -26 87 -87 159 -169 199 -53
26 -67 28 -204 32 l-148 3 0 -111z"/>
<path d="M1340 1955 l0 -76 407 -654 407 -655 58 0 58 0 0 139 0 139 -367 591
-368 591 -97 0 -98 0 0 -75z"/>
<path d="M2040 1722 l0 -307 105 -170 c58 -94 110 -171 115 -173 6 -2 10 175
10 477 l0 481 -115 0 -115 0 0 -308z"/>
<path d="M1340 1115 l0 -545 115 0 115 0 0 371 0 371 -107 174 c-60 96 -111
174 -115 174 -5 0 -8 -245 -8 -545z"/>
</g>
</svg>
